<?xml version="1.0" standalone="no"?>
<!DOCTYPE svg PUBLIC "-//W3C//DTD SVG 20010904//EN"
 "http://www.w3.org/TR/2001/REC-SVG-20010904/DTD/svg10.dtd">
<svg version="1.0" xmlns="http://www.w3.org/2000/svg"
 width="1179.000000pt" height="1179.000000pt" viewBox="0 0 1179.000000 1179.000000"
 preserveAspectRatio="xMidYMid meet">
<metadata>
Created by potrace 1.11, written by Peter Selinger 2001-2013
</metadata>
<g transform="translate(0.000000,1179.000000) scale(0.100000,-0.100000)"
fill="#000000" stroke="none">
<path d="M2179 8538 c-3 -33 2 -213 16 -538 3 -58 7 -175 10 -260 11 -308 13
-339 19 -349 4 -5 2 -12 -4 -16 -6 -4 -8 -10 -5 -14 2 -5 6 -56 9 -115 l4
-106 -25 0 c-38 0 -63 18 -79 57 -9 19 -18 32 -22 28 -4 -3 -5 -61 -3 -128 2
-67 4 -229 5 -360 1 -195 -2 -239 -13 -246 -51 -32 -133 148 -156 339 -7 55
-7 221 0 265 19 127 42 230 90 405 6 21 26 102 30 120 2 8 4 15 5 15 2 0 7 30
15 90 4 28 7 54 8 59 1 6 -5 11 -14 13 -16 4 -57 -76 -78 -154 -6 -23 -16 -45
-22 -48 -5 -4 -9 -3 -8 2 1 4 0 10 -1 13 -8 21 -11 60 -14 160 -2 63 -4 125
-5 138 -2 34 -19 26 -36 -15 -29 -68 -51 -240 -54 -407 -4 -267 -10 -294 -83
-423 -23 -40 -44 -70 -48 -68 -15 10 -57 109 -76 180 -18 64 -10 194 17 305
16 63 31 128 34 144 3 16 9 34 12 39 11 18 33 130 39 200 l7 68 -31 -18 c-39
-22 -50 -13 -53 45 -3 42 -12 61 -23 44 -7 -11 -57 -208 -59 -232 -1 -12 -5
-16 -10 -11 -11 11 -35 51 -43 72 -3 8 -21 24 -40 34 -30 16 -37 17 -49 4 -13
-13 -11 -21 14 -69 16 -30 35 -75 42 -100 7 -25 13 -47 14 -50 21 -64 22 -306
2 -326 -2 -2 -32 28 -67 68 -105 120 -137 148 -170 148 -17 0 -31 -6 -32 -12
0 -7 -2 -20 -3 -28 -3 -32 44 -129 102 -209 26 -35 70 -93 91 -117 9 -11 28
-36 42 -54 14 -18 54 -69 89 -114 160 -203 261 -364 263 -420 2 -55 -3 -60
-68 -70 -28 -4 -112 18 -166 43 -70 34 -156 124 -235 246 -40 61 -96 148 -127
195 -30 47 -79 112 -108 144 -77 86 -126 162 -149 236 -26 84 -30 112 -34 250
-4 140 -3 130 -14 130 -5 0 -14 -13 -21 -30 -16 -38 -26 -38 -66 1 l-31 30 3
-33 c2 -18 8 -55 14 -83 6 -27 14 -61 16 -75 18 -85 1 -180 -31 -180 -26 0
-16 -20 38 -78 132 -141 204 -229 282 -347 55 -81 98 -169 88 -178 -2 -3 -22
1 -44 8 -21 8 -39 12 -39 10 0 -2 -28 5 -62 16 -84 26 -134 32 -159 19 -19
-11 -19 -12 -2 -41 24 -41 176 -117 298 -148 27 -7 61 -31 106 -73 136 -129
176 -158 265 -189 44 -16 80 -21 140 -20 68 1 85 -2 108 -20 14 -11 26 -27 26
-35 0 -8 4 -14 9 -14 5 0 15 -14 22 -32 7 -18 46 -76 86 -130 40 -54 73 -103
73 -108 0 -6 4 -10 9 -10 12 0 94 -172 120 -252 50 -152 63 -403 25 -469 -42
-71 -98 -49 -238 95 -54 55 -96 96 -93 91 3 -6 8 -36 11 -68 4 -32 11 -78 15
-103 l9 -46 -27 7 c-14 3 -55 23 -91 44 -137 78 -200 103 -257 102 -29 0 -58
-3 -63 -6 -6 -3 -18 -8 -28 -10 -51 -9 -102 -27 -102 -34 0 -16 44 -38 120
-60 93 -28 147 -49 182 -74 32 -21 37 -47 11 -48 -10 0 -27 -2 -38 -5 -28 -6
-304 -8 -340 -2 -44 7 -68 22 -99 63 -43 56 -74 143 -93 261 -9 53 -8 418 0
499 21 192 21 201 4 186 -10 -7 -17 -20 -17 -28 0 -8 -8 -26 -19 -39 -14 -18
-21 -21 -28 -11 -15 18 -32 74 -26 81 4 3 1 6 -5 6 -13 0 -29 -29 -27 -50 1
-8 -2 -22 -6 -30 -4 -8 -10 -44 -14 -80 -3 -36 -8 -78 -10 -95 -15 -118 -24
-301 -25 -520 -1 -204 3 -222 60 -348 17 -37 30 -73 30 -81 0 -8 -23 -28 -50
-45 -28 -17 -48 -36 -45 -41 4 -6 9 -8 13 -6 4 2 23 7 42 10 19 3 60 10 90 16
30 6 71 13 90 16 19 2 42 6 50 9 8 2 31 7 50 10 19 3 42 8 50 10 8 2 35 7 59
10 l43 6 -19 -33 c-11 -18 -33 -55 -48 -83 -30 -53 -99 -142 -126 -162 -22
-17 -55 -97 -64 -156 l-6 -48 28 4 c73 13 104 38 187 156 186 265 415 407 583
361 27 -8 50 -16 53 -20 3 -3 27 -23 54 -43 89 -67 142 -158 130 -222 -8 -47
-31 -73 -87 -101 -48 -24 -222 -90 -257 -98 -22 -5 -321 -114 -345 -126 -11
-5 -67 -28 -125 -51 -352 -138 -520 -231 -520 -288 0 -33 43 -38 140 -17 14 3
72 26 130 50 58 24 108 42 112 40 10 -6 -41 -108 -133 -264 -41 -69 -85 -147
-98 -175 -13 -27 -27 -58 -32 -67 -13 -25 -12 -28 11 -28 30 0 100 78 143 159
34 63 65 103 71 92 4 -5 4 -33 2 -60 -5 -57 5 -70 37 -48 24 16 40 40 187 289
55 92 113 182 131 200 l31 33 -7 -35 c-4 -19 -36 -122 -71 -229 -72 -221 -81
-263 -60 -280 12 -10 21 -8 45 10 37 27 55 17 56 -34 3 -85 44 -107 64 -34 7
23 12 47 11 52 -2 6 -2 12 -1 15 1 3 4 43 5 90 5 117 14 174 43 250 61 164
195 279 358 306 80 14 225 -2 225 -24 0 -4 -10 -18 -22 -32 -13 -14 -61 -76
-108 -138 -46 -61 -88 -112 -92 -112 -5 0 -8 -5 -8 -11 0 -6 -10 -23 -22 -38
-13 -15 -34 -43 -48 -61 -62 -83 -175 -225 -182 -228 -5 -2 -8 -8 -8 -14 0 -5
-14 -26 -30 -46 -17 -20 -60 -75 -96 -122 -36 -47 -72 -93 -80 -103 -8 -9 -14
-19 -14 -22 0 -3 -8 -13 -17 -24 -20 -20 -29 -32 -133 -168 -71 -94 -77 -103
-61 -103 7 0 44 45 103 125 5 5 23 28 40 51 18 22 42 53 53 68 18 24 35 46 63
81 4 6 28 37 52 70 47 62 68 89 85 109 6 6 30 38 54 71 25 33 57 76 73 95 16
19 32 40 36 45 70 94 135 176 147 189 9 9 13 16 8 16 -4 0 -3 4 2 8 6 4 35 39
65 77 30 39 60 76 67 83 7 7 13 16 13 20 0 4 14 23 30 42 16 19 35 41 41 49
10 11 14 10 23 -5 37 -65 21 -154 -55 -322 -69 -151 -191 -295 -376 -444 -93
-74 -90 -89 12 -64 34 9 147 74 153 88 2 4 10 8 17 8 7 0 15 4 17 8 2 4 25 22
51 40 56 37 56 48 2 -110 -19 -54 -30 -100 -26 -103 5 -2 21 7 37 20 16 14 37
28 47 31 26 8 55 -22 67 -68 9 -33 28 -52 31 -30 1 4 2 18 4 32 6 59 17 127
25 160 5 19 11 47 14 62 16 91 82 289 111 331 12 16 15 13 30 -30 27 -72 94
-225 111 -250 32 -50 37 -28 30 145 -3 92 -8 183 -10 202 -2 19 -6 77 -10 128
-4 52 -9 102 -11 112 -2 11 -7 48 -10 85 l-7 65 178 -2 179 -3 28 -56 c33 -67
77 -192 84 -234 2 -16 8 -43 13 -60 16 -52 27 -180 32 -362 1 -57 5 -103 9
-103 10 0 36 34 43 57 4 12 9 60 11 106 5 88 17 137 35 137 32 0 123 -84 152
-140 7 -14 16 -29 21 -35 4 -5 25 -37 47 -70 68 -103 152 -177 181 -159 19 12
-11 79 -63 137 -9 11 -22 32 -29 49 -10 25 -9 33 7 55 25 34 32 34 142 13 51
-10 102 -16 112 -13 44 12 13 61 -86 135 -27 21 -53 41 -59 46 -5 4 -62 47
-126 95 -157 117 -278 227 -335 303 -16 22 -31 41 -34 44 -29 26 -56 143 -40
170 18 28 126 -20 310 -138 30 -19 79 -50 109 -69 105 -68 258 -143 303 -149
81 -11 73 29 -20 98 -55 41 -81 66 -82 80 0 4 42 4 93 0 163 -10 188 -8 172
19 -9 13 -121 66 -156 73 -162 33 -340 105 -427 174 -50 40 -72 78 -72 127 0
32 10 46 83 119 93 93 206 171 314 216 110 46 125 47 141 12 23 -54 84 -102
207 -162 66 -32 132 -61 147 -64 15 -2 32 -7 37 -10 20 -13 157 -36 244 -42
215 -14 309 -3 355 42 14 14 38 14 94 -2 9 -3 28 -24 42 -48 13 -23 44 -59 68
-79 86 -74 293 -156 433 -173 105 -12 317 -11 386 2 66 12 142 44 154 64 3 5
26 10 51 10 39 0 50 -5 90 -45 72 -69 166 -116 267 -131 23 -4 106 -7 185 -7
l142 0 1 -106 c1 -101 3 -212 13 -556 5 -188 4 -177 15 -171 10 6 6 329 -4
346 -3 5 -1 10 5 10 6 0 8 5 4 11 -4 6 -8 115 -10 243 l-4 231 84 16 c101 20
217 74 268 125 21 20 46 60 57 87 15 43 24 53 55 63 22 8 36 9 36 3 0 -15 60
-36 95 -34 85 4 283 77 339 124 10 9 20 15 22 13 2 -1 28 13 57 31 94 60 94
60 130 39 18 -11 57 -33 87 -49 30 -17 75 -41 100 -55 25 -14 70 -39 100 -55
30 -17 93 -51 139 -77 47 -25 88 -46 93 -46 4 0 8 -4 8 -9 0 -5 8 -11 18 -14
9 -3 49 -23 87 -45 39 -21 95 -52 125 -68 30 -16 57 -31 60 -34 3 -3 28 -16
55 -30 28 -14 91 -48 140 -77 84 -48 121 -59 92 -29 -6 8 -15 12 -19 9 -5 -2
-8 1 -8 6 0 6 -4 11 -9 11 -5 0 -57 27 -115 60 -58 33 -108 60 -110 60 -3 0
-31 15 -63 34 -32 18 -87 49 -123 68 -36 19 -94 52 -130 72 -36 20 -81 44
-100 53 -19 8 -37 18 -40 22 -3 3 -18 13 -35 22 -78 42 -157 86 -227 125 -43
24 -81 44 -85 44 -4 0 -19 9 -32 19 l-23 18 32 24 c17 13 71 62 119 109 90 87
129 151 110 181 -13 20 -12 23 16 53 20 22 32 26 72 25 66 -3 118 26 184 101
30 34 77 87 105 118 122 135 223 272 239 324 4 13 10 25 14 28 23 19 70 203
63 250 -4 31 -13 43 -56 72 -14 9 21 58 101 140 72 74 156 58 200 -39 50 -108
64 -218 40 -299 -20 -65 14 -111 86 -118 41 -4 77 16 73 42 -2 9 -7 42 -11 72
-4 30 -9 64 -11 75 -3 11 -7 72 -9 135 l-5 115 20 -30 c27 -43 49 -136 53
-228 2 -43 8 -82 13 -87 14 -14 76 -21 93 -10 21 13 22 114 2 190 -16 60 -66
178 -81 190 -3 3 -21 27 -39 54 -29 45 -31 50 -16 65 23 23 126 19 200 -8 134
-50 311 -166 422 -278 94 -94 118 -163 84 -238 -20 -44 -78 -106 -122 -132
-16 -10 -29 -21 -29 -26 0 -4 -4 -6 -8 -3 -15 9 -54 -73 -48 -99 17 -67 81
-48 182 52 68 67 84 75 84 44 0 -37 52 -166 88 -216 46 -66 80 -92 149 -116
159 -56 266 63 116 128 -27 11 -68 28 -93 37 -89 33 -114 77 -124 226 -8 103
-19 173 -35 211 -15 39 -24 64 -25 71 -1 4 -7 13 -13 19 -7 7 -13 17 -13 22 0
15 -67 94 -127 151 -29 27 -51 51 -49 54 3 2 19 -3 38 -11 131 -60 429 -147
501 -147 33 0 37 3 37 24 0 25 -62 86 -87 86 -7 0 -14 3 -14 8 -3 14 -16 575
-33 1406 -3 146 -9 233 -16 240 -8 8 -9 -65 -5 -263 4 -151 8 -363 10 -472 2
-109 6 -203 10 -209 3 -5 1 -10 -5 -10 -6 0 -8 -5 -5 -11 4 -5 9 -121 11 -257
3 -136 6 -280 7 -320 3 -80 -4 -102 -25 -85 -7 5 -87 33 -178 62 -176 56 -174
55 -265 96 -101 46 -151 59 -325 85 -69 10 -126 19 -127 19 -1 1 0 8 3 16 10
26 138 73 275 100 42 8 129 64 102 65 -9 1 -66 8 -133 16 -55 7 -41 17 56 40
38 9 74 17 79 18 6 2 24 8 40 15 85 33 97 48 97 125 -1 42 -5 55 -26 73 -35
29 -60 20 -122 -44 -29 -29 -62 -54 -75 -55 -22 -3 -24 1 -27 44 -4 66 -29 79
-70 39 -16 -16 -35 -43 -42 -60 -7 -17 -16 -31 -21 -31 -5 0 -9 -7 -9 -15 0
-15 -94 -95 -112 -95 -17 0 -89 -59 -198 -160 -133 -124 -202 -159 -275 -139
-19 6 -36 13 -39 18 -7 10 13 62 78 206 46 102 109 152 341 270 78 40 182 100
232 134 50 34 95 61 101 61 6 0 12 4 14 8 3 7 106 60 133 69 72 23 199 67 230
80 56 24 96 70 93 108 -3 28 -6 30 -43 29 -49 -1 -79 -7 -128 -27 -20 -9 -37
-12 -37 -6 0 5 3 9 8 9 10 0 102 88 102 99 0 5 -8 11 -19 14 -20 5 -33 58 -19
79 10 17 10 90 -1 107 -11 17 -61 17 -93 0 -13 -7 -24 -12 -25 -11 -2 1 -9 -1
-17 -4 -30 -11 -52 -67 -55 -134 -2 -80 -7 -96 -40 -140 -65 -87 -194 -183
-406 -304 -66 -37 -127 -72 -135 -77 -8 -4 -35 -19 -60 -32 -25 -13 -75 -40
-112 -60 -37 -20 -70 -32 -73 -28 -13 22 42 274 76 347 33 69 80 111 131 119
35 5 96 2 118 -5 8 -3 64 1 81 6 16 5 39 44 39 69 0 7 -13 27 -30 43 -23 23
-36 29 -62 26 -190 -20 -189 -20 -184 57 5 63 -16 93 -63 91 -63 -2 -70 -27
-47 -173 5 -29 1 -40 -19 -59 -14 -13 -25 -20 -25 -17 0 19 -51 -41 -61 -72
-7 -20 -16 -39 -22 -42 -19 -13 -73 3 -163 46 -111 54 -143 87 -137 142 2 22
-1 45 -9 56 -41 55 -194 -7 -214 -88 -8 -32 -3 -38 75 -89 64 -41 118 -106 88
-106 -7 0 -35 -11 -64 -24 -89 -42 -102 -111 -27 -142 51 -21 79 -11 140 50
52 52 61 55 121 48 23 -3 72 -57 91 -100 35 -77 14 -294 -43 -452 -9 -25 -18
-52 -20 -60 -2 -8 -19 -53 -39 -100 -20 -46 -36 -90 -36 -97 0 -7 -4 -13 -10
-13 -5 0 -10 -6 -10 -14 0 -8 -10 -36 -22 -63 -24 -55 -22 -48 -33 -88 -10
-37 -22 -46 -50 -35 -37 14 -56 -1 -183 -155 -90 -107 -177 -226 -230 -315
-44 -72 -102 -193 -102 -212 0 -8 -3 -18 -7 -22 -9 -9 -13 -31 -16 -95 -3 -59
-22 -80 -33 -34 -3 15 -9 37 -12 48 -3 11 -7 22 -7 25 -1 3 -5 12 -8 20 -3 8
-13 40 -21 70 -21 83 -72 257 -96 329 -11 36 -23 78 -26 95 -3 16 -7 33 -10
38 -5 8 -41 123 -49 158 -2 8 -17 62 -35 120 -17 58 -33 112 -35 120 -2 8 -18
62 -35 120 -18 58 -33 113 -35 123 -7 35 -29 87 -37 87 -10 0 -10 -10 1 -46 5
-16 20 -63 32 -104 12 -41 28 -95 36 -120 8 -25 17 -54 19 -65 2 -11 8 -31 13
-45 11 -32 31 -101 35 -120 2 -8 5 -22 8 -30 7 -21 40 -132 42 -145 3 -11 34
-115 73 -242 13 -46 26 -89 27 -95 1 -7 7 -26 13 -43 10 -26 24 -79 25 -95 0
-3 5 -16 10 -30 6 -14 16 -50 24 -80 8 -30 17 -62 21 -70 3 -8 7 -19 8 -25 2
-5 6 -21 9 -35 9 -39 -23 -69 -86 -80 -87 -15 -128 -29 -229 -80 -179 -89
-381 -246 -451 -349 -31 -46 -109 -74 -149 -54 -48 24 -122 32 -259 27 -74 -2
-146 -6 -160 -8 -14 -3 -43 -7 -65 -11 -22 -3 -47 -8 -55 -10 -8 -3 -35 -7
-59 -10 -24 -3 -65 -10 -90 -16 -25 -6 -57 -13 -71 -15 -92 -18 -189 -49 -210
-68 -20 -19 -35 -22 -78 -20 -50 2 -54 5 -120 72 -42 44 -78 73 -97 77 -17 4
-39 11 -50 15 -11 5 -33 11 -50 14 -16 3 -41 7 -55 10 -14 3 -43 7 -65 10 -39
5 -100 14 -140 21 -11 2 -42 8 -70 15 -93 21 -130 25 -238 24 -93 0 -111 -3
-136 -21 -34 -26 -46 -28 -88 -18 -20 5 -33 15 -37 29 -9 38 -65 106 -111 135
-24 15 -97 47 -162 70 -136 49 -147 53 -151 52 -1 -1 -18 5 -37 13 -20 9 -38
15 -40 16 -3 0 -6 0 -7 1 -2 0 -10 2 -18 4 -8 2 -40 11 -70 20 -30 8 -75 18
-100 21 -25 3 -63 9 -85 13 -83 14 -245 -2 -263 -26 -11 -16 -16 -16 -83 0
-133 32 -282 105 -378 187 -23 19 -41 38 -41 44 0 7 76 108 153 202 37 45 218
276 277 354 36 46 72 92 80 101 8 10 20 24 25 31 22 28 81 104 92 118 35 42
111 140 133 170 14 19 38 49 54 67 21 24 24 33 12 33 -8 0 -43 -37 -77 -82
-35 -46 -74 -97 -88 -114 -14 -16 -37 -45 -51 -63 -14 -19 -32 -41 -40 -51 -8
-10 -26 -32 -40 -50 -27 -36 -83 -106 -103 -130 -6 -8 -25 -32 -41 -55 -16
-22 -34 -45 -40 -52 -6 -6 -22 -26 -36 -44 -66 -87 -249 -318 -277 -349 -13
-14 -23 -28 -23 -32 0 -3 -7 -14 -16 -23 -17 -17 -13 -20 -66 44 -71 85 -108
278 -70 372 6 14 12 39 15 55 8 46 86 323 107 382 45 120 96 188 194 259 28
21 55 43 59 50 4 7 15 13 22 13 8 0 15 3 15 8 0 4 11 14 24 22 25 16 100 78
147 122 42 38 39 66 -10 74 -61 10 -67 17 -48 56 8 18 16 37 15 42 0 5 5 12
10 15 10 6 40 88 48 127 2 12 -3 27 -11 34 -20 17 -44 -5 -121 -113 -32 -45
-61 -84 -64 -87 -3 -3 -21 -27 -40 -53 -19 -27 -53 -67 -75 -89 l-40 -41 -5
29 c-3 16 -3 47 1 70 4 22 10 64 14 94 3 29 8 57 11 62 3 5 7 19 9 31 6 47 17
102 21 108 2 4 6 24 10 45 3 22 12 66 19 99 8 33 17 83 20 110 4 28 10 66 14
85 14 63 13 154 -1 173 -18 24 -46 13 -54 -22 -4 -14 -9 -30 -13 -36 -3 -5 -7
-19 -8 -30 -6 -37 -53 -169 -81 -224 -20 -41 -33 -56 -52 -58 -28 -4 -39 -18
-41 -53 -4 -73 -6 -88 -13 -118 -6 -25 -11 -30 -20 -23 -7 6 -15 8 -19 5 -3
-3 -15 -3 -26 1 -15 4 -26 25 -41 75 -24 81 -40 97 -41 43 0 -21 -2 -47 -4
-58 -1 -11 -6 -42 -9 -70 -11 -79 -31 -129 -95 -245 l-31 -55 6 82 c4 45 3 94
0 109 -6 22 -11 25 -34 21 -24 -5 -30 -1 -41 24 -16 37 -50 53 -70 33 -15 -13
-17 -91 -6 -194 10 -91 15 -348 8 -368 -7 -18 -14 -13 -56 44 -31 42 -55 64
-65 62 -42 -8 -54 -116 -27 -250 21 -105 23 -117 35 -157 15 -46 17 -54 19
-63 5 -19 56 -132 96 -209 91 -178 120 -321 81 -408 -26 -56 -73 -67 -151 -36
-160 65 -360 231 -428 355 -31 58 -58 125 -74 185 -13 48 -12 226 1 269 8 26
12 46 10 46 -3 0 14 37 38 83 36 70 64 103 188 227 80 80 152 154 161 166 32
41 69 99 69 107 0 10 -59 -20 -94 -50 -35 -29 -48 -26 -52 13 -2 17 -7 41 -12
54 -7 20 -14 13 -63 -70 -60 -104 -161 -215 -196 -217 -30 -2 -29 15 4 85 30
62 120 214 133 222 4 3 13 16 20 29 7 14 17 30 22 35 51 62 147 200 143 206
-3 4 -33 -7 -67 -26 -35 -18 -71 -34 -81 -34 -20 0 -20 1 9 164 2 11 11 41 20
68 17 51 16 72 -2 60 -13 -8 -93 -142 -116 -192 -57 -125 -81 -173 -96 -192
-52 -64 -61 -72 -68 -66 -4 5 -8 47 -10 95 -1 49 -5 158 -9 243 -3 85 -8 203
-10 262 -2 60 -7 112 -10 118 -3 5 -1 10 5 10 6 0 8 5 5 10 -4 6 -8 59 -10
118 -3 59 -7 184 -11 277 -3 94 -6 187 -6 208 0 34 -17 65 -19 35z m1082
-1395 c4 -118 -12 -320 -35 -418 -1 -5 -8 -37 -15 -70 -16 -77 -51 -186 -64
-202 -5 -7 -6 -13 -2 -13 4 0 3 -6 -3 -12 -8 -11 -47 -123 -57 -168 -2 -8 -11
-32 -19 -53 -21 -48 -30 -44 -107 59 l-60 79 6 65 c2 36 14 94 25 129 26 80
104 268 142 339 72 134 86 160 111 200 50 78 76 100 78 65z"/>
</g>
</svg>
